<?xml version="1.0" encoding="UTF-8"?>
<svg width="256px" height="256px" viewBox="0 0 256 256" version="1.1" xmlns="http://www.w3.org/2000/svg" xmlns:xlink="http://www.w3.org/1999/xlink">
    <!-- Generator: Sketch 41.2 (35397) - http://www.bohemiancoding.com/sketch -->
    <title>beans</title>
    <desc>Created with Sketch.</desc>
    <defs></defs>
    <g id="Page-1" stroke="none" stroke-width="1" fill="none" fill-rule="evenodd">
        <g id="beans">
            <g id="Group-2" transform="translate(8.000000, 25.000000)">
                <g id="Group" transform="translate(0.000000, 98.926554)">
                    <path d="M175.221481,4.65536723 C170.406553,26.9865819 182.979612,96.0112572 71.0679612,101.442907 C76.0726998,105.627713 126.95966,99.8815084 147.155643,93.4937765 C167.351626,87.1060446 189.927649,59.8988088 196.777154,4.65536723 L175.221481,4.65536723 Z" id="Shape" fill="#DEA069"></path>
                    <path d="M196.893204,0 C196.893204,59.1350315 152.817159,107.073446 98.4466019,107.073446 C44.076045,107.073446 0,59.1350315 0,0 L196.893204,0 Z" id="Combined-Shape" stroke="#352517" stroke-width="12.815534" stroke-linecap="round" stroke-linejoin="round"></path>
                    <path d="M200.501313,1.03369918e-15 L216.761321,1.03369918e-15 C229.469958,1.03369918e-15 239.772344,10.2883359 239.772344,22.9858757 C239.772344,35.6806243 229.467218,45.9717514 216.761321,45.9717514 L187.572816,45.9717514 C194.856792,32.2765177 199.431911,16.6637014 200.501313,0 L200.501313,1.03369918e-15 Z" id="Combined-Shape" stroke="#352517" stroke-width="12.815534" stroke-linecap="round" stroke-linejoin="round"></path>
                    <path d="M205.631068,0 C205.631068,59.1350315 161.555023,107.073446 107.184466,107.073446 C52.8139091,107.073446 8.73786408,59.1350315 8.73786408,0 L205.631068,0 Z" id="Combined-Shape" stroke="#352517" stroke-width="12.815534" stroke-linecap="round" stroke-linejoin="round"></path>
                </g>
                <path d="M4.66019417,39.5706215 C4.66019417,32.1787425 10.6580971,26.1864407 18.0598591,26.1864407 L57.6699029,26.1864407 L57.6699029,13.3841808 C57.6699029,5.99230185 63.665507,0 71.0690995,0 L195.727017,0 C203.127189,0 209.126214,5.99067658 209.126214,13.3841808 C209.126214,19.4136655 205.137033,24.5119405 199.648465,26.1864407 L123.785725,26.1864407 C122.272489,26.1864407 120.806285,26.388959 119.412851,26.7683616 L118.754544,26.7683616 L119.412851,26.7683616 C112.368866,28.6862894 107.184466,35.1243699 107.184466,42.7711864 C107.184466,51.9327025 114.617103,59.3559322 123.785725,59.3559322 L144.466019,59.3559322 C152.953412,60.1582038 159.61165,67.2711378 159.61165,75.940678 C159.61165,84.6086661 152.959323,91.7235281 144.466019,92.4621585 L60,92.5254237 L60,87.8700565 L64.9536386,87.8700565 C74.766076,87.8700565 82.7184466,79.9237432 82.7184466,70.1214689 C82.7184466,60.3170394 74.7648711,52.3728814 64.9536386,52.3728814 L14.1410126,52.3728814 C8.6523848,50.6985956 4.66019417,45.6012697 4.66019417,39.5706215 Z" id="Combined-Shape" fill="#DEA069"></path>
            </g>
        </g>
    </g>
</svg>
